# xmcd
#
# Track frame offsets: 
#        150
#        14655
#        33110
#        50341
#        74714
#        89857
#        104143
#        121843
#        138637
#        160052
#        179426
#
# Disc length: 2678 seconds
#
# Revision: 0
# Processed by: cddbd v1.5.2PL0 Copyright (c) Steve Scherf et al.
# Submitted via: ExactAudioCopy v0.99pb4
#
DISCID=a30a740b
DTITLE=Deborah Lombardi - On The Fringe
DYEAR=2006
DGENRE=Americana
TTITLE0=City Limits
TTITLE1=Keep Lookin'
TTITLE2=Almost Beautiful
TTITLE3=City On The Potomac
TTITLE4=It's OK
TTITLE5=On The Fringe
TTITLE6=My Dog's Life
TTITLE7=Agoraphobia
TTITLE8=At The Bottom
TTITLE9=Premature Gray
TTITLE10=In Exile
EXTD=
EXTT0=
EXTT1=
EXTT2=
EXTT3=
EXTT4=
EXTT5=
EXTT6=
EXTT7=
EXTT8=
EXTT9=
EXTT10=
PLAYORDER=
